<svg width="74" height="45" viewBox="0 0 74 45" fill="none" xmlns="http://www.w3.org/2000/svg">
<path d="M11.096 1.928C11.096 1.416 11.2453 1.01066 11.544 0.711998C11.8853 0.370664 12.312 0.199997 12.824 0.199997C13.7627 0.199997 14.3387 0.647998 14.552 1.544C14.68 0.647998 15.2347 0.199997 16.216 0.199997C16.7707 0.199997 17.1973 0.370664 17.496 0.711998C17.7947 1.01066 17.944 1.416 17.944 1.928C17.944 2.48266 17.7733 2.90933 17.432 3.208C17.1333 3.50666 16.728 3.656 16.216 3.656C15.2773 3.656 14.7013 3.208 14.488 2.312C14.36 3.208 13.8053 3.656 12.824 3.656C12.2693 3.656 11.8427 3.50666 11.544 3.208C11.2453 2.86666 11.096 2.44 11.096 1.928ZM11.096 1.928C11.096 2.44 10.9253 2.86666 10.584 3.208C10.2853 3.50666 9.88 3.656 9.368 3.656C8.81333 3.656 8.38667 3.50666 8.088 3.208C7.78933 2.86666 7.64 2.44 7.64 1.928C7.64 1.37333 7.78933 0.946664 8.088 0.647999C8.42933 0.349331 8.856 0.199997 9.368 0.199997C9.92267 0.199997 10.3493 0.370664 10.648 0.711998C10.9467 1.01066 11.096 1.416 11.096 1.928ZM17.944 1.864C17.944 0.754664 18.4987 0.199997 19.608 0.199997C20.12 0.199997 20.5253 0.349331 20.824 0.647999C21.1653 0.946664 21.336 1.352 21.336 1.864C21.336 3.05866 20.7813 3.656 19.672 3.656C19.16 3.656 18.7333 3.50666 18.392 3.208C18.0933 2.90933 17.944 2.504 17.944 1.992V1.864ZM21.336 1.928C21.336 1.416 21.4853 1.01066 21.784 0.711998C22.1253 0.370664 22.552 0.199997 23.064 0.199997C23.6187 0.199997 24.0453 0.370664 24.344 0.711998C24.6427 1.01066 24.792 1.416 24.792 1.928C24.792 2.48266 24.6213 2.90933 24.28 3.208C23.9813 3.50666 23.576 3.656 23.064 3.656C22.5093 3.656 22.0827 3.50666 21.784 3.208C21.4853 2.86666 21.336 2.44 21.336 1.928ZM24.792 1.928C24.792 1.416 24.9413 1.01066 25.24 0.711998C25.5813 0.370664 26.008 0.199997 26.52 0.199997C27.0747 0.199997 27.5013 0.370664 27.8 0.711998C28.0987 1.01066 28.248 1.416 28.248 1.928C28.248 2.48266 28.0773 2.90933 27.736 3.208C27.4373 3.50666 27.032 3.656 26.52 3.656C25.9653 3.656 25.5387 3.50666 25.24 3.208C24.9413 2.86666 24.792 2.44 24.792 1.928ZM31.704 1.928C31.704 2.44 31.5333 2.86666 31.192 3.208C30.8933 3.50666 30.488 3.656 29.976 3.656C29.4213 3.656 28.9947 3.50666 28.696 3.208C28.3973 2.86666 28.248 2.44 28.248 1.928C28.248 1.37333 28.3973 0.946664 28.696 0.647999C29.0373 0.349331 29.464 0.199997 29.976 0.199997C30.5307 0.199997 30.9573 0.370664 31.256 0.711998C31.5547 1.01066 31.704 1.416 31.704 1.928ZM11.096 5.384C11.096 4.872 11.2453 4.46666 11.544 4.168C11.8853 3.82667 12.312 3.656 12.824 3.656C13.7627 3.656 14.3387 4.104 14.552 5C14.68 4.104 15.2347 3.656 16.216 3.656C16.7707 3.656 17.1973 3.82667 17.496 4.168C17.7947 4.46666 17.944 4.872 17.944 5.384C17.944 5.93867 17.7733 6.36533 17.432 6.664C17.1333 6.96267 16.728 7.112 16.216 7.112C15.2773 7.112 14.7013 6.664 14.488 5.768C14.36 6.664 13.8053 7.112 12.824 7.112C12.2693 7.112 11.8427 6.96267 11.544 6.664C11.2453 6.32266 11.096 5.896 11.096 5.384ZM7.64 5.384C7.64 5.896 7.46933 6.32266 7.128 6.664C6.82933 6.96267 6.424 7.112 5.912 7.112C5.35733 7.112 4.93067 6.96267 4.632 6.664C4.33333 6.32266 4.184 5.896 4.184 5.384C4.184 4.82933 4.33333 4.40266 4.632 4.104C4.97333 3.80533 5.4 3.656 5.912 3.656C6.46667 3.656 6.89333 3.82667 7.192 4.168C7.49067 4.46666 7.64 4.872 7.64 5.384ZM24.792 5.384C24.792 4.872 24.9413 4.46666 25.24 4.168C25.5813 3.82667 26.008 3.656 26.52 3.656C27.0747 3.656 27.5013 3.82667 27.8 4.168C28.0987 4.46666 28.248 4.872 28.248 5.384C28.248 5.93867 28.0773 6.36533 27.736 6.664C27.4373 6.96267 27.032 7.112 26.52 7.112C25.9653 7.112 25.5387 6.96267 25.24 6.664C24.9413 6.32266 24.792 5.896 24.792 5.384ZM21.336 5.384C21.336 4.872 21.4853 4.46666 21.784 4.168C22.1253 3.82667 22.552 3.656 23.064 3.656C23.6187 3.656 24.0453 3.82667 24.344 4.168C24.6427 4.46666 24.792 4.872 24.792 5.384C24.792 5.93867 24.6213 6.36533 24.28 6.664C23.9813 6.96267 23.576 7.112 23.064 7.112C22.5093 7.112 22.0827 6.96267 21.784 6.664C21.4853 6.32266 21.336 5.896 21.336 5.384ZM17.944 5.32C17.944 4.21067 18.4987 3.656 19.608 3.656C20.12 3.656 20.5253 3.80533 20.824 4.104C21.1653 4.40266 21.336 4.808 21.336 5.32C21.336 6.51467 20.7813 7.112 19.672 7.112C19.16 7.112 18.7333 6.96267 18.392 6.664C18.0933 6.36533 17.944 5.96 17.944 5.448V5.32ZM31.704 5.384C31.704 5.896 31.5333 6.32266 31.192 6.664C30.8933 6.96267 30.488 7.112 29.976 7.112C29.4213 7.112 28.9947 6.96267 28.696 6.664C28.3973 6.32266 28.248 5.896 28.248 5.384C28.248 4.82933 28.3973 4.40266 28.696 4.104C29.0373 3.80533 29.464 3.656 29.976 3.656C30.5307 3.656 30.9573 3.82667 31.256 4.168C31.5547 4.46666 31.704 4.872 31.704 5.384ZM11.096 5.384C11.096 5.896 10.9253 6.32266 10.584 6.664C10.2853 6.96267 9.88 7.112 9.368 7.112C8.81333 7.112 8.38667 6.96267 8.088 6.664C7.78933 6.32266 7.64 5.896 7.64 5.384C7.64 4.82933 7.78933 4.40266 8.088 4.104C8.42933 3.80533 8.856 3.656 9.368 3.656C9.92267 3.656 10.3493 3.82667 10.648 4.168C10.9467 4.46666 11.096 4.872 11.096 5.384ZM35.096 5.448C35.096 6.55733 34.5413 7.112 33.432 7.112C32.92 7.112 32.4933 6.96267 32.152 6.664C31.8533 6.36533 31.704 5.96 31.704 5.448C31.704 4.25333 32.2587 3.656 33.368 3.656C33.88 3.656 34.2853 3.80533 34.584 4.104C34.9253 4.40266 35.096 4.808 35.096 5.32V5.448ZM4.184 8.84C4.184 9.94933 3.62933 10.504 2.52 10.504C1.32533 10.504 0.728 9.94933 0.728 8.84C0.728 8.328 0.877333 7.92266 1.176 7.624C1.47467 7.28267 1.88 7.112 2.392 7.112C3.58667 7.112 4.184 7.66667 4.184 8.776V8.84ZM7.64 8.84C7.64 8.28533 7.78933 7.85867 8.088 7.56C8.42933 7.26133 8.856 7.112 9.368 7.112C9.92267 7.112 10.3493 7.28267 10.648 7.624C10.9467 7.92266 11.096 8.328 11.096 8.84C11.096 9.352 10.9253 9.77866 10.584 10.12C10.2853 10.4187 9.88 10.568 9.368 10.568C8.81333 10.568 8.38667 10.4187 8.088 10.12C7.78933 9.77866 7.64 9.352 7.64 8.84ZM31.704 8.776C31.704 7.66667 32.2587 7.112 33.368 7.112C34.392 7.112 34.968 7.53867 35.096 8.392C35.3093 7.53867 35.864 7.112 36.76 7.112C37.9547 7.112 38.552 7.66667 38.552 8.776C38.552 9.288 38.4027 9.71467 38.104 10.056C37.8053 10.3547 37.4 10.504 36.888 10.504C35.9067 10.504 35.3093 10.056 35.096 9.16C34.968 10.056 34.4347 10.504 33.496 10.504C32.3013 10.504 31.704 9.94933 31.704 8.84V8.904C31.704 10.0133 31.1493 10.568 30.04 10.568C29.528 10.568 29.1013 10.4187 28.76 10.12C28.4613 9.82133 28.312 9.416 28.312 8.904C28.312 7.70933 28.8667 7.112 29.976 7.112C30.488 7.112 30.8933 7.26133 31.192 7.56C31.5333 7.85867 31.704 8.264 31.704 8.776ZM4.184 8.84C4.184 8.328 4.33333 7.92266 4.632 7.624C4.93067 7.28267 5.336 7.112 5.848 7.112C7.04267 7.112 7.64 7.66667 7.64 8.776V8.84C7.64 9.94933 7.08533 10.504 5.976 10.504C4.78133 10.504 4.184 9.94933 4.184 8.84ZM4.184 12.232C4.184 12.744 4.01333 13.1707 3.672 13.512C3.37333 13.8107 2.968 13.96 2.456 13.96C1.90133 13.96 1.47467 13.8107 1.176 13.512C0.877333 13.1707 0.728 12.744 0.728 12.232C0.728 11.6773 0.877333 11.2507 1.176 10.952C1.51733 10.6533 1.944 10.504 2.456 10.504C3.01067 10.504 3.43733 10.6747 3.736 11.016C4.03467 11.3147 4.184 11.72 4.184 12.232ZM31.704 12.232C31.704 11.72 31.8533 11.3147 32.152 11.016C32.4933 10.6747 32.92 10.504 33.432 10.504C34.3707 10.504 34.9467 10.952 35.16 11.848C35.288 10.952 35.8427 10.504 36.824 10.504C37.3787 10.504 37.8053 10.6747 38.104 11.016C38.4027 11.3147 38.552 11.72 38.552 12.232C38.552 12.7867 38.3813 13.2133 38.04 13.512C37.7413 13.8107 37.336 13.96 36.824 13.96C35.8853 13.96 35.3093 13.512 35.096 12.616C34.968 13.512 34.4133 13.96 33.432 13.96C32.8773 13.96 32.4507 13.8107 32.152 13.512C31.8533 13.1707 31.704 12.744 31.704 12.232ZM7.64 12.232C7.64 12.744 7.46933 13.1707 7.128 13.512C6.82933 13.8107 6.424 13.96 5.912 13.96C5.35733 13.96 4.93067 13.8107 4.632 13.512C4.33333 13.1707 4.184 12.744 4.184 12.232C4.184 11.6773 4.33333 11.2507 4.632 10.952C4.97333 10.6533 5.4 10.504 5.912 10.504C6.46667 10.504 6.89333 10.6747 7.192 11.016C7.49067 11.3147 7.64 11.72 7.64 12.232ZM4.184 15.688C4.184 16.2 4.01333 16.6267 3.672 16.968C3.37333 17.2667 2.968 17.416 2.456 17.416C1.90133 17.416 1.47467 17.2667 1.176 16.968C0.877333 16.6267 0.728 16.2 0.728 15.688C0.728 15.1333 0.877333 14.7067 1.176 14.408C1.51733 14.1093 1.944 13.96 2.456 13.96C3.01067 13.96 3.43733 14.1307 3.736 14.472C4.03467 14.7707 4.184 15.176 4.184 15.688ZM31.704 15.688C31.704 15.176 31.8533 14.7707 32.152 14.472C32.4933 14.1307 32.92 13.96 33.432 13.96C34.3707 13.96 34.9467 14.408 35.16 15.304C35.288 14.408 35.8427 13.96 36.824 13.96C37.3787 13.96 37.8053 14.1307 38.104 14.472C38.4027 14.7707 38.552 15.176 38.552 15.688C38.552 16.2427 38.3813 16.6693 38.04 16.968C37.7413 17.2667 37.336 17.416 36.824 17.416C35.8853 17.416 35.3093 16.968 35.096 16.072C34.968 16.968 34.4133 17.416 33.432 17.416C32.8773 17.416 32.4507 17.2667 32.152 16.968C31.8533 16.6267 31.704 16.2 31.704 15.688ZM7.64 15.688C7.64 16.2 7.46933 16.6267 7.128 16.968C6.82933 17.2667 6.424 17.416 5.912 17.416C5.35733 17.416 4.93067 17.2667 4.632 16.968C4.33333 16.6267 4.184 16.2 4.184 15.688C4.184 15.1333 4.33333 14.7067 4.632 14.408C4.97333 14.1093 5.4 13.96 5.912 13.96C6.46667 13.96 6.89333 14.1307 7.192 14.472C7.49067 14.7707 7.64 15.176 7.64 15.688ZM4.184 19.144C4.184 19.656 4.01333 20.0827 3.672 20.424C3.37333 20.7227 2.968 20.872 2.456 20.872C1.90133 20.872 1.47467 20.7227 1.176 20.424C0.877333 20.0827 0.728 19.656 0.728 19.144C0.728 18.5893 0.877333 18.1627 1.176 17.864C1.51733 17.5653 1.944 17.416 2.456 17.416C3.01067 17.416 3.43733 17.5867 3.736 17.928C4.03467 18.2267 4.184 18.632 4.184 19.144ZM7.64 19.144C7.64 19.656 7.46933 20.0827 7.128 20.424C6.82933 20.7227 6.424 20.872 5.912 20.872C5.35733 20.872 4.93067 20.7227 4.632 20.424C4.33333 20.0827 4.184 19.656 4.184 19.144C4.184 18.5893 4.33333 18.1627 4.632 17.864C4.97333 17.5653 5.4 17.416 5.912 17.416C6.46667 17.416 6.89333 17.5867 7.192 17.928C7.49067 18.2267 7.64 18.632 7.64 19.144ZM35.096 22.664C35.096 23.7733 34.5413 24.328 33.432 24.328C32.92 24.328 32.4933 24.1787 32.152 23.88C31.8533 23.5813 31.704 23.176 31.704 22.664C31.704 21.4693 32.2587 20.872 33.368 20.872C33.88 20.872 34.2853 21.0213 34.584 21.32C34.9253 21.6187 35.096 22.024 35.096 22.536V22.664ZM28.248 22.6C28.248 22.0453 28.3973 21.6187 28.696 21.32C29.0373 21.0213 29.464 20.872 29.976 20.872C30.5307 20.872 30.9573 21.0427 31.256 21.384C31.5547 21.6827 31.704 22.088 31.704 22.6C31.704 23.112 31.5333 23.5387 31.192 23.88C30.8933 24.1787 30.488 24.328 29.976 24.328C29.4213 24.328 28.9947 24.1787 28.696 23.88C28.3973 23.5387 28.248 23.112 28.248 22.6ZM35.096 22.6C35.096 22.088 35.2453 21.6827 35.544 21.384C35.8853 21.0427 36.312 20.872 36.824 20.872C37.3787 20.872 37.8053 21.0427 38.104 21.384C38.4027 21.6827 38.552 22.088 38.552 22.6C38.552 23.1547 38.3813 23.5813 38.04 23.88C37.7413 24.1787 37.336 24.328 36.824 24.328C36.2693 24.328 35.8427 24.1787 35.544 23.88C35.2453 23.5387 35.096 23.112 35.096 22.6ZM24.792 22.6C24.792 23.112 24.6213 23.5387 24.28 23.88C23.9813 24.1787 23.576 24.328 23.064 24.328C22.5093 24.328 22.0827 24.1787 21.784 23.88C21.4853 23.5387 21.336 23.112 21.336 22.6C21.336 22.0453 21.4853 21.6187 21.784 21.32C22.1253 21.0213 22.552 20.872 23.064 20.872C23.6187 20.872 24.0453 21.0427 24.344 21.384C24.6427 21.6827 24.792 22.088 24.792 22.6ZM26.52 24.328C25.9653 24.328 25.5387 24.1787 25.24 23.88C24.9413 23.5387 24.792 23.112 24.792 22.6C24.792 22.0453 24.9413 21.6187 25.24 21.32C25.5813 21.0213 26.008 20.872 26.52 20.872C27.0747 20.872 27.5013 21.0427 27.8 21.384C28.0987 21.6827 28.248 22.088 28.248 22.6C28.248 23.112 28.0773 23.5387 27.736 23.88C27.4373 24.1787 27.032 24.328 26.52 24.328ZM4.184 22.6C4.184 22.0453 4.33333 21.6187 4.632 21.32C4.97333 21.0213 5.4 20.872 5.912 20.872C6.46667 20.872 6.89333 21.0427 7.192 21.384C7.49067 21.6827 7.64 22.088 7.64 22.6C7.64 23.112 7.46933 23.5387 7.128 23.88C6.82933 24.1787 6.424 24.328 5.912 24.328C5.35733 24.328 4.93067 24.1787 4.632 23.88C4.33333 23.5387 4.184 23.112 4.184 22.6ZM2.456 24.328C1.90133 24.328 1.47467 24.1787 1.176 23.88C0.877333 23.5387 0.728 23.112 0.728 22.6C0.728 22.0453 0.877333 21.6187 1.176 21.32C1.51733 21.0213 1.944 20.872 2.456 20.872C3.01067 20.872 3.43733 21.0427 3.736 21.384C4.03467 21.6827 4.184 22.088 4.184 22.6C4.184 23.112 4.01333 23.5387 3.672 23.88C3.37333 24.1787 2.968 24.328 2.456 24.328ZM4.184 26.056C4.184 25.5013 4.33333 25.0747 4.632 24.776C4.97333 24.4773 5.4 24.328 5.912 24.328C6.46667 24.328 6.89333 24.4987 7.192 24.84C7.49067 25.1387 7.64 25.544 7.64 26.056C7.64 26.568 7.46933 26.9947 7.128 27.336C6.82933 27.6347 6.424 27.784 5.912 27.784C5.35733 27.784 4.93067 27.6347 4.632 27.336C4.33333 26.9947 4.184 26.568 4.184 26.056ZM31.704 26.056C31.704 25.544 31.8533 25.1387 32.152 24.84C32.4933 24.4987 32.92 24.328 33.432 24.328C34.3707 24.328 34.9467 24.776 35.16 25.672C35.288 24.776 35.8427 24.328 36.824 24.328C37.3787 24.328 37.8053 24.4987 38.104 24.84C38.4027 25.1387 38.552 25.544 38.552 26.056C38.552 26.6107 38.3813 27.0373 38.04 27.336C37.7413 27.6347 37.336 27.784 36.824 27.784C35.8853 27.784 35.3093 27.336 35.096 26.44C34.968 27.336 34.4133 27.784 33.432 27.784C32.8773 27.784 32.4507 27.6347 32.152 27.336C31.8533 26.9947 31.704 26.568 31.704 26.056ZM24.792 26.056C24.792 26.568 24.6213 26.9947 24.28 27.336C23.9813 27.6347 23.576 27.784 23.064 27.784C22.5093 27.784 22.0827 27.6347 21.784 27.336C21.4853 26.9947 21.336 26.568 21.336 26.056C21.336 25.5013 21.4853 25.0747 21.784 24.776C22.1253 24.4773 22.552 24.328 23.064 24.328C23.6187 24.328 24.0453 24.4987 24.344 24.84C24.6427 25.1387 24.792 25.544 24.792 26.056ZM2.456 27.784C1.90133 27.784 1.47467 27.6347 1.176 27.336C0.877333 26.9947 0.728 26.568 0.728 26.056C0.728 25.5013 0.877333 25.0747 1.176 24.776C1.51733 24.4773 1.944 24.328 2.456 24.328C3.01067 24.328 3.43733 24.4987 3.736 24.84C4.03467 25.1387 4.184 25.544 4.184 26.056C4.184 26.568 4.01333 26.9947 3.672 27.336C3.37333 27.6347 2.968 27.784 2.456 27.784ZM28.248 26.056C28.248 25.5013 28.3973 25.0747 28.696 24.776C29.0373 24.4773 29.464 24.328 29.976 24.328C30.5307 24.328 30.9573 24.4987 31.256 24.84C31.5547 25.1387 31.704 25.544 31.704 26.056C31.704 26.568 31.5333 26.9947 31.192 27.336C30.8933 27.6347 30.488 27.784 29.976 27.784C29.4213 27.784 28.9947 27.6347 28.696 27.336C28.3973 26.9947 28.248 26.568 28.248 26.056ZM26.52 27.784C25.9653 27.784 25.5387 27.6347 25.24 27.336C24.9413 26.9947 24.792 26.568 24.792 26.056C24.792 25.5013 24.9413 25.0747 25.24 24.776C25.5813 24.4773 26.008 24.328 26.52 24.328C27.0747 24.328 27.5013 24.4987 27.8 24.84C28.0987 25.1387 28.248 25.544 28.248 26.056C28.248 26.568 28.0773 26.9947 27.736 27.336C27.4373 27.6347 27.032 27.784 26.52 27.784ZM31.704 29.512C31.704 30.024 31.5333 30.4507 31.192 30.792C30.8933 31.0907 30.488 31.24 29.976 31.24C29.4213 31.24 28.9947 31.0907 28.696 30.792C28.3973 30.4507 28.248 30.024 28.248 29.512C28.248 28.9573 28.3973 28.5307 28.696 28.232C29.0373 27.9333 29.464 27.784 29.976 27.784C30.5307 27.784 30.9573 27.9547 31.256 28.296C31.5547 28.5947 31.704 29 31.704 29.512ZM31.704 29.512C31.704 29 31.8533 28.5947 32.152 28.296C32.4933 27.9547 32.92 27.784 33.432 27.784C34.3707 27.784 34.9467 28.232 35.16 29.128C35.288 28.232 35.8427 27.784 36.824 27.784C37.3787 27.784 37.8053 27.9547 38.104 28.296C38.4027 28.5947 38.552 29 38.552 29.512C38.552 30.0667 38.3813 30.4933 38.04 30.792C37.7413 31.0907 37.336 31.24 36.824 31.24C35.8853 31.24 35.3093 30.792 35.096 29.896C34.968 30.792 34.4133 31.24 33.432 31.24C32.8773 31.24 32.4507 31.0907 32.152 30.792C31.8533 30.4507 31.704 30.024 31.704 29.512ZM4.184 29.512C4.184 28.9573 4.33333 28.5307 4.632 28.232C4.97333 27.9333 5.4 27.784 5.912 27.784C6.46667 27.784 6.89333 27.9547 7.192 28.296C7.49067 28.5947 7.64 29 7.64 29.512C7.64 30.024 7.46933 30.4507 7.128 30.792C6.82933 31.0907 6.424 31.24 5.912 31.24C5.35733 31.24 4.93067 31.0907 4.632 30.792C4.33333 30.4507 4.184 30.024 4.184 29.512ZM2.456 31.24C1.90133 31.24 1.47467 31.0907 1.176 30.792C0.877333 30.4507 0.728 30.024 0.728 29.512C0.728 28.9573 0.877333 28.5307 1.176 28.232C1.51733 27.9333 1.944 27.784 2.456 27.784C3.01067 27.784 3.43733 27.9547 3.736 28.296C4.03467 28.5947 4.184 29 4.184 29.512C4.184 30.024 4.01333 30.4507 3.672 30.792C3.37333 31.0907 2.968 31.24 2.456 31.24ZM31.704 32.904C31.704 31.7947 32.2587 31.24 33.368 31.24C34.392 31.24 34.968 31.6667 35.096 32.52C35.3093 31.6667 35.864 31.24 36.76 31.24C37.9547 31.24 38.552 31.7947 38.552 32.904C38.552 33.416 38.4027 33.8427 38.104 34.184C37.8053 34.4827 37.4 34.632 36.888 34.632C35.9067 34.632 35.3093 34.184 35.096 33.288C34.968 34.184 34.4347 34.632 33.496 34.632C32.3013 34.632 31.704 34.0773 31.704 32.968V32.904ZM31.704 32.968C31.704 33.48 31.5333 33.9067 31.192 34.248C30.8933 34.5467 30.488 34.696 29.976 34.696C29.0373 34.696 28.4613 34.248 28.248 33.352C28.12 34.248 27.5653 34.696 26.584 34.696C26.0293 34.696 25.6027 34.5467 25.304 34.248C25.0053 33.9067 24.856 33.48 24.856 32.968C24.856 32.4133 25.0053 31.9867 25.304 31.688C25.6453 31.3893 26.072 31.24 26.584 31.24C27.5227 31.24 28.0987 31.688 28.312 32.584C28.44 31.688 28.9947 31.24 29.976 31.24C30.5307 31.24 30.9573 31.4107 31.256 31.752C31.5547 32.0507 31.704 32.456 31.704 32.968ZM4.184 32.968C4.184 33.48 4.01333 33.9067 3.672 34.248C3.37333 34.5467 2.968 34.696 2.456 34.696C1.90133 34.696 1.47467 34.5467 1.176 34.248C0.877333 33.9067 0.728 33.48 0.728 32.968C0.728 32.4133 0.877333 31.9867 1.176 31.688C1.51733 31.3893 1.944 31.24 2.456 31.24C3.01067 31.24 3.43733 31.4107 3.736 31.752C4.03467 32.0507 4.184 32.456 4.184 32.968ZM7.64 32.968C7.64 33.48 7.46933 33.9067 7.128 34.248C6.82933 34.5467 6.424 34.696 5.912 34.696C5.35733 34.696 4.93067 34.5467 4.632 34.248C4.33333 33.9067 4.184 33.48 4.184 32.968C4.184 32.4133 4.33333 31.9867 4.632 31.688C4.97333 31.3893 5.4 31.24 5.912 31.24C6.46667 31.24 6.89333 31.4107 7.192 31.752C7.49067 32.0507 7.64 32.456 7.64 32.968ZM11.096 36.36C11.096 36.872 10.9253 37.2987 10.584 37.64C10.2853 37.9387 9.88 38.088 9.368 38.088C8.81333 38.088 8.38667 37.9387 8.088 37.64C7.78933 37.2987 7.64 36.872 7.64 36.36C7.64 35.8053 7.78933 35.3787 8.088 35.08C8.42933 34.7813 8.856 34.632 9.368 34.632C9.92267 34.632 10.3493 34.8027 10.648 35.144C10.9467 35.4427 11.096 35.848 11.096 36.36ZM35.096 36.36C35.096 36.872 34.9253 37.2987 34.584 37.64C34.2853 37.9387 33.88 38.088 33.368 38.088C32.3867 38.088 31.832 37.64 31.704 36.744C31.4907 37.6827 30.9147 38.152 29.976 38.152C29.0373 38.152 28.4613 37.704 28.248 36.808C28.12 37.704 27.5653 38.152 26.584 38.152C25.56 38.152 24.984 37.6827 24.856 36.744C24.728 37.64 24.1733 38.088 23.192 38.088C22.5947 38.088 22.1467 37.9387 21.848 37.64C21.5493 37.2987 21.4 36.872 21.4 36.36C21.4 35.8053 21.5493 35.3787 21.848 35.08C22.1893 34.7813 22.616 34.632 23.128 34.632C24.1947 34.632 24.792 35.1013 24.92 36.04C25.048 35.144 25.6027 34.696 26.584 34.696C27.5227 34.696 28.0987 35.144 28.312 36.04C28.44 35.144 28.9947 34.696 29.976 34.696C30.9573 34.696 31.512 35.144 31.64 36.04C31.8533 35.1013 32.4293 34.632 33.368 34.632C33.9227 34.632 34.3493 34.8027 34.648 35.144C34.9467 35.4427 35.096 35.848 35.096 36.36ZM35.096 36.36C35.096 35.848 35.2453 35.4427 35.544 35.144C35.8853 34.8027 36.312 34.632 36.824 34.632C37.3787 34.632 37.8053 34.8027 38.104 35.144C38.4027 35.4427 38.552 35.848 38.552 36.36C38.552 36.9147 38.3813 37.3413 38.04 37.64C37.7413 37.9387 37.336 38.088 36.824 38.088C36.2693 38.088 35.8427 37.9387 35.544 37.64C35.2453 37.2987 35.096 36.872 35.096 36.36ZM7.64 39.816C7.64 40.328 7.46933 40.7547 7.128 41.096C6.82933 41.3947 6.424 41.544 5.912 41.544C5.35733 41.544 4.93067 41.3947 4.632 41.096C4.33333 40.7547 4.184 40.328 4.184 39.816C4.184 38.8773 4.632 38.3013 5.528 38.088C4.632 37.96 4.184 37.4053 4.184 36.424C4.184 35.8693 4.33333 35.4427 4.632 35.144C4.97333 34.8453 5.4 34.696 5.912 34.696C6.46667 34.696 6.89333 34.8667 7.192 35.208C7.49067 35.5067 7.64 35.912 7.64 36.424C7.64 37.4053 7.192 37.96 6.296 38.088C7.192 38.3013 7.64 38.8773 7.64 39.816ZM4.184 36.424C4.184 36.936 4.01333 37.3627 3.672 37.704C3.37333 38.0027 2.968 38.152 2.456 38.152C1.90133 38.152 1.47467 38.0027 1.176 37.704C0.877333 37.3627 0.728 36.936 0.728 36.424C0.728 35.8693 0.877333 35.4427 1.176 35.144C1.51733 34.8453 1.944 34.696 2.456 34.696C3.01067 34.696 3.43733 34.8667 3.736 35.208C4.03467 35.5067 4.184 35.912 4.184 36.424ZM31.704 39.816C31.704 39.304 31.8533 38.8987 32.152 38.6C32.4933 38.2587 32.92 38.088 33.432 38.088C34.3707 38.088 34.9467 38.536 35.16 39.432C35.288 38.536 35.8427 38.088 36.824 38.088C37.3787 38.088 37.8053 38.2587 38.104 38.6C38.4027 38.8987 38.552 39.304 38.552 39.816C38.552 40.3707 38.3813 40.7973 38.04 41.096C37.7413 41.3947 37.336 41.544 36.824 41.544C35.8853 41.544 35.3093 41.096 35.096 40.2C34.968 41.096 34.4133 41.544 33.432 41.544C32.8773 41.544 32.4507 41.3947 32.152 41.096C31.8533 40.7547 31.704 40.328 31.704 39.816ZM11.096 39.816C11.096 39.304 11.2453 38.8987 11.544 38.6C11.8853 38.2587 12.312 38.088 12.824 38.088C13.7627 38.088 14.3387 38.536 14.552 39.432C14.68 38.536 15.2347 38.088 16.216 38.088C16.7707 38.088 17.1973 38.2587 17.496 38.6C17.7947 38.8987 17.944 39.304 17.944 39.816C17.944 40.3707 17.7733 40.7973 17.432 41.096C17.1333 41.3947 16.728 41.544 16.216 41.544C15.2773 41.544 14.7013 41.096 14.488 40.2C14.36 41.096 13.8053 41.544 12.824 41.544C12.2693 41.544 11.8427 41.3947 11.544 41.096C11.2453 40.7547 11.096 40.328 11.096 39.816ZM17.944 39.816C17.944 39.304 18.0933 38.8987 18.392 38.6C18.7333 38.2587 19.16 38.088 19.672 38.088C20.2267 38.088 20.6533 38.2587 20.952 38.6C21.2507 38.8987 21.4 39.304 21.4 39.816C21.4 40.3707 21.2293 40.7973 20.888 41.096C20.5893 41.3947 20.184 41.544 19.672 41.544C19.1173 41.544 18.6907 41.3947 18.392 41.096C18.0933 40.7547 17.944 40.328 17.944 39.816ZM28.312 39.88C28.312 40.392 28.1413 40.8187 27.8 41.16C27.5013 41.4587 27.096 41.608 26.584 41.608C25.56 41.608 24.984 41.1387 24.856 40.2C24.728 41.096 24.1733 41.544 23.192 41.544C22.5947 41.544 22.1467 41.3947 21.848 41.096C21.5493 40.7547 21.4 40.328 21.4 39.816C21.4 39.2613 21.5493 38.8347 21.848 38.536C22.1893 38.2373 22.616 38.088 23.128 38.088C24.1947 38.088 24.792 38.5573 24.92 39.496C25.048 38.6 25.6027 38.152 26.584 38.152C27.1387 38.152 27.5653 38.3227 27.864 38.664C28.1627 38.9627 28.312 39.368 28.312 39.88ZM11.096 39.816C11.096 40.328 10.9253 40.7547 10.584 41.096C10.2853 41.3947 9.88 41.544 9.368 41.544C8.81333 41.544 8.38667 41.3947 8.088 41.096C7.78933 40.7547 7.64 40.328 7.64 39.816C7.64 39.2613 7.78933 38.8347 8.088 38.536C8.42933 38.2373 8.856 38.088 9.368 38.088C9.92267 38.088 10.3493 38.2587 10.648 38.6C10.9467 38.8987 11.096 39.304 11.096 39.816ZM11.096 43.272C11.096 42.76 11.2453 42.3547 11.544 42.056C11.8853 41.7147 12.312 41.544 12.824 41.544C13.7627 41.544 14.3387 41.992 14.552 42.888C14.68 41.992 15.2347 41.544 16.216 41.544C16.7707 41.544 17.1973 41.7147 17.496 42.056C17.7947 42.3547 17.944 42.76 17.944 43.272C17.944 43.8267 17.7733 44.2533 17.432 44.552C17.1333 44.8507 16.728 45 16.216 45C15.2773 45 14.7013 44.552 14.488 43.656C14.36 44.552 13.8053 45 12.824 45C12.2693 45 11.8427 44.8507 11.544 44.552C11.2453 44.2107 11.096 43.784 11.096 43.272ZM31.704 43.272C31.704 42.76 31.8533 42.3547 32.152 42.056C32.4933 41.7147 32.92 41.544 33.432 41.544C34.3707 41.544 34.9467 41.992 35.16 42.888C35.288 41.992 35.8427 41.544 36.824 41.544C37.3787 41.544 37.8053 41.7147 38.104 42.056C38.4027 42.3547 38.552 42.76 38.552 43.272C38.552 43.8267 38.3813 44.2533 38.04 44.552C37.7413 44.8507 37.336 45 36.824 45C35.8853 45 35.3093 44.552 35.096 43.656C34.968 44.552 34.4133 45 33.432 45C32.8773 45 32.4507 44.8507 32.152 44.552C31.8533 44.2107 31.704 43.784 31.704 43.272ZM11.096 43.272C11.096 43.784 10.9253 44.2107 10.584 44.552C10.2853 44.8507 9.88 45 9.368 45C8.81333 45 8.38667 44.8507 8.088 44.552C7.78933 44.2107 7.64 43.784 7.64 43.272C7.64 42.7173 7.78933 42.2907 8.088 41.992C8.42933 41.6933 8.856 41.544 9.368 41.544C9.92267 41.544 10.3493 41.7147 10.648 42.056C10.9467 42.3547 11.096 42.76 11.096 43.272ZM17.944 43.272C17.944 42.76 18.0933 42.3547 18.392 42.056C18.7333 41.7147 19.16 41.544 19.672 41.544C20.2267 41.544 20.6533 41.7147 20.952 42.056C21.2507 42.3547 21.4 42.76 21.4 43.272C21.4 43.8267 21.2293 44.2533 20.888 44.552C20.5893 44.8507 20.184 45 19.672 45C19.1173 45 18.6907 44.8507 18.392 44.552C18.0933 44.2107 17.944 43.784 17.944 43.272ZM21.4 43.272C21.4 42.76 21.5493 42.3547 21.848 42.056C22.1893 41.7147 22.616 41.544 23.128 41.544C23.6827 41.544 24.1093 41.7147 24.408 42.056C24.7067 42.3547 24.856 42.76 24.856 43.272C24.856 43.8267 24.6853 44.2533 24.344 44.552C24.0453 44.8507 23.64 45 23.128 45C22.5733 45 22.1467 44.8507 21.848 44.552C21.5493 44.2107 21.4 43.784 21.4 43.272ZM41.978 1.928C41.978 1.416 42.1273 1.01066 42.426 0.711998C42.7247 0.370664 43.1513 0.199997 43.706 0.199997C44.218 0.199997 44.6233 0.349331 44.922 0.647999C45.2633 0.946664 45.434 1.37333 45.434 1.928C45.434 2.44 45.2847 2.86666 44.986 3.208C44.6873 3.50666 44.2607 3.656 43.706 3.656C43.194 3.656 42.7673 3.50666 42.426 3.208C42.1273 2.86666 41.978 2.44 41.978 1.928ZM69.562 1.928C69.562 1.416 69.7113 1.01066 70.01 0.711998C70.3087 0.370664 70.7353 0.199997 71.29 0.199997C71.802 0.199997 72.2073 0.349331 72.506 0.647999C72.8473 0.946664 73.018 1.37333 73.018 1.928C73.018 2.44 72.8687 2.86666 72.57 3.208C72.2713 3.50666 71.8447 3.656 71.29 3.656C70.778 3.656 70.3513 3.50666 70.01 3.208C69.7113 2.86666 69.562 2.44 69.562 1.928ZM66.106 1.928C66.106 1.416 66.2553 1.01066 66.554 0.711998C66.8527 0.370664 67.2793 0.199997 67.834 0.199997C68.346 0.199997 68.7513 0.349331 69.05 0.647999C69.3913 0.946664 69.562 1.37333 69.562 1.928C69.562 2.44 69.4127 2.86666 69.114 3.208C68.8153 3.50666 68.3887 3.656 67.834 3.656C67.322 3.656 66.8953 3.50666 66.554 3.208C66.2553 2.86666 66.106 2.44 66.106 1.928ZM62.65 1.928C62.65 1.416 62.7993 1.01066 63.098 0.711998C63.3967 0.370664 63.8233 0.199997 64.378 0.199997C64.89 0.199997 65.2953 0.349331 65.594 0.647999C65.9353 0.946664 66.106 1.37333 66.106 1.928C66.106 2.44 65.9567 2.86666 65.658 3.208C65.3593 3.50666 64.9327 3.656 64.378 3.656C63.866 3.656 63.4393 3.50666 63.098 3.208C62.7993 2.86666 62.65 2.44 62.65 1.928ZM59.194 1.928C59.194 1.416 59.3433 1.01066 59.642 0.711998C59.9407 0.370664 60.3673 0.199997 60.922 0.199997C61.434 0.199997 61.8393 0.349331 62.138 0.647999C62.4793 0.946664 62.65 1.37333 62.65 1.928C62.65 2.44 62.5007 2.86666 62.202 3.208C61.9033 3.50666 61.4767 3.656 60.922 3.656C60.41 3.656 59.9833 3.50666 59.642 3.208C59.3433 2.86666 59.194 2.44 59.194 1.928ZM55.738 1.928C55.738 1.416 55.8873 1.01066 56.186 0.711998C56.4847 0.370664 56.9113 0.199997 57.466 0.199997C57.978 0.199997 58.3833 0.349331 58.682 0.647999C59.0233 0.946664 59.194 1.37333 59.194 1.928C59.194 2.44 59.0447 2.86666 58.746 3.208C58.4473 3.50666 58.0207 3.656 57.466 3.656C56.954 3.656 56.5273 3.50666 56.186 3.208C55.8873 2.86666 55.738 2.44 55.738 1.928ZM52.282 1.928C52.282 1.416 52.4313 1.01066 52.73 0.711998C53.0287 0.370664 53.4553 0.199997 54.01 0.199997C54.522 0.199997 54.9273 0.349331 55.226 0.647999C55.5673 0.946664 55.738 1.37333 55.738 1.928C55.738 2.44 55.5887 2.86666 55.29 3.208C54.9913 3.50666 54.5647 3.656 54.01 3.656C53.498 3.656 53.0713 3.50666 52.73 3.208C52.4313 2.86666 52.282 2.44 52.282 1.928ZM48.826 1.928C48.826 1.416 48.9753 1.01066 49.274 0.711998C49.5727 0.370664 49.9993 0.199997 50.554 0.199997C51.066 0.199997 51.4713 0.349331 51.77 0.647999C52.1113 0.946664 52.282 1.37333 52.282 1.928C52.282 2.44 52.1327 2.86666 51.834 3.208C51.5353 3.50666 51.1087 3.656 50.554 3.656C50.042 3.656 49.6153 3.50666 49.274 3.208C48.9753 2.86666 48.826 2.44 48.826 1.928ZM45.434 1.864C45.434 1.352 45.5833 0.946664 45.882 0.647999C46.2233 0.349331 46.65 0.199997 47.162 0.199997C48.2713 0.199997 48.826 0.79733 48.826 1.992C48.826 2.504 48.6553 2.90933 48.314 3.208C48.0153 3.50666 47.61 3.656 47.098 3.656C45.9887 3.656 45.434 3.10133 45.434 1.992V1.864ZM45.434 5.32C45.434 4.808 45.5833 4.40266 45.882 4.104C46.2233 3.80533 46.65 3.656 47.162 3.656C48.2713 3.656 48.826 4.25333 48.826 5.448C48.826 5.96 48.6553 6.36533 48.314 6.664C48.0153 6.96267 47.61 7.112 47.098 7.112C45.9887 7.112 45.434 6.55733 45.434 5.448V5.32ZM62.65 5.384C62.65 4.872 62.7993 4.46666 63.098 4.168C63.3967 3.82667 63.8233 3.656 64.378 3.656C64.89 3.656 65.2953 3.80533 65.594 4.104C65.9353 4.40266 66.106 4.82933 66.106 5.384C66.106 5.896 65.9567 6.32266 65.658 6.664C65.3593 6.96267 64.9327 7.112 64.378 7.112C63.866 7.112 63.4393 6.96267 63.098 6.664C62.7993 6.32266 62.65 5.896 62.65 5.384ZM69.562 5.384C69.562 4.872 69.7113 4.46666 70.01 4.168C70.3087 3.82667 70.7353 3.656 71.29 3.656C71.802 3.656 72.2073 3.80533 72.506 4.104C72.8473 4.40266 73.018 4.82933 73.018 5.384C73.018 5.896 72.8687 6.32266 72.57 6.664C72.2713 6.96267 71.8447 7.112 71.29 7.112C70.778 7.112 70.3513 6.96267 70.01 6.664C69.7113 6.32266 69.562 5.896 69.562 5.384ZM45.434 5.384C45.434 5.896 45.2847 6.32266 44.986 6.664C44.6873 6.96267 44.2607 7.112 43.706 7.112C43.194 7.112 42.7673 6.96267 42.426 6.664C42.1273 6.36533 41.978 5.93867 41.978 5.384C41.978 4.872 42.1273 4.46666 42.426 4.168C42.7247 3.82667 43.1513 3.656 43.706 3.656C44.218 3.656 44.6233 3.82667 44.922 4.168C45.2633 4.46666 45.434 4.872 45.434 5.384ZM48.826 5.384C48.826 4.872 48.9753 4.46666 49.274 4.168C49.5727 3.82667 49.9993 3.656 50.554 3.656C51.066 3.656 51.4713 3.80533 51.77 4.104C52.1113 4.40266 52.282 4.82933 52.282 5.384C52.282 5.896 52.1327 6.32266 51.834 6.664C51.5353 6.96267 51.1087 7.112 50.554 7.112C50.042 7.112 49.6153 6.96267 49.274 6.664C48.9753 6.32266 48.826 5.896 48.826 5.384ZM52.282 5.384C52.282 4.872 52.4313 4.46666 52.73 4.168C53.0287 3.82667 53.4553 3.656 54.01 3.656C54.522 3.656 54.9273 3.80533 55.226 4.104C55.5673 4.40266 55.738 4.82933 55.738 5.384C55.738 5.896 55.5887 6.32266 55.29 6.664C54.9913 6.96267 54.5647 7.112 54.01 7.112C53.498 7.112 53.0713 6.96267 52.73 6.664C52.4313 6.32266 52.282 5.896 52.282 5.384ZM55.738 5.384C55.738 4.872 55.8873 4.46666 56.186 4.168C56.4847 3.82667 56.9113 3.656 57.466 3.656C57.978 3.656 58.3833 3.80533 58.682 4.104C59.0233 4.40266 59.194 4.82933 59.194 5.384C59.194 5.896 59.0447 6.32266 58.746 6.664C58.4473 6.96267 58.0207 7.112 57.466 7.112C56.954 7.112 56.5273 6.96267 56.186 6.664C55.8873 6.32266 55.738 5.896 55.738 5.384ZM59.194 5.384C59.194 4.872 59.3433 4.46666 59.642 4.168C59.9407 3.82667 60.3673 3.656 60.922 3.656C61.434 3.656 61.8393 3.80533 62.138 4.104C62.4793 4.40266 62.65 4.82933 62.65 5.384C62.65 5.896 62.5007 6.32266 62.202 6.664C61.9033 6.96267 61.4767 7.112 60.922 7.112C60.41 7.112 59.9833 6.96267 59.642 6.664C59.3433 6.32266 59.194 5.896 59.194 5.384ZM66.106 5.384C66.106 4.872 66.2553 4.46666 66.554 4.168C66.8527 3.82667 67.2793 3.656 67.834 3.656C68.346 3.656 68.7513 3.80533 69.05 4.104C69.3913 4.40266 69.562 4.82933 69.562 5.384C69.562 5.896 69.4127 6.32266 69.114 6.664C68.8153 6.96267 68.3887 7.112 67.834 7.112C67.322 7.112 66.8953 6.96267 66.554 6.664C66.2553 6.32266 66.106 5.896 66.106 5.384ZM45.434 8.84C45.434 9.352 45.2847 9.77866 44.986 10.12C44.6873 10.4187 44.2607 10.568 43.706 10.568C43.194 10.568 42.7673 10.4187 42.426 10.12C42.1273 9.82133 41.978 9.39466 41.978 8.84C41.978 8.328 42.1273 7.92266 42.426 7.624C42.7247 7.28267 43.1513 7.112 43.706 7.112C44.218 7.112 44.6233 7.28267 44.922 7.624C45.2633 7.92266 45.434 8.328 45.434 8.84ZM48.89 8.84C48.89 9.352 48.7407 9.77866 48.442 10.12C48.1433 10.4187 47.7167 10.568 47.162 10.568C46.65 10.568 46.2233 10.4187 45.882 10.12C45.5833 9.82133 45.434 9.39466 45.434 8.84C45.434 8.328 45.5833 7.92266 45.882 7.624C46.1807 7.28267 46.6073 7.112 47.162 7.112C47.674 7.112 48.0793 7.28267 48.378 7.624C48.7193 7.92266 48.89 8.328 48.89 8.84ZM45.434 12.296C45.434 13.4053 44.8367 13.96 43.642 13.96C43.13 13.96 42.7247 13.8107 42.426 13.512C42.1273 13.1707 41.978 12.744 41.978 12.232C41.978 11.1227 42.5753 10.568 43.77 10.568C44.8793 10.568 45.434 11.1227 45.434 12.232V12.296ZM48.89 12.296C48.89 13.4053 48.2927 13.96 47.098 13.96C46.586 13.96 46.1807 13.8107 45.882 13.512C45.5833 13.1707 45.434 12.744 45.434 12.232C45.434 11.1227 46.0313 10.568 47.226 10.568C48.3353 10.568 48.89 11.1227 48.89 12.232V12.296ZM45.434 15.688C45.434 16.2 45.2847 16.6267 44.986 16.968C44.6873 17.2667 44.2607 17.416 43.706 17.416C43.194 17.416 42.7673 17.2667 42.426 16.968C42.1273 16.6693 41.978 16.2427 41.978 15.688C41.978 15.176 42.1273 14.7707 42.426 14.472C42.7247 14.1307 43.1513 13.96 43.706 13.96C44.218 13.96 44.6233 14.1307 44.922 14.472C45.2633 14.7707 45.434 15.176 45.434 15.688ZM48.89 15.688C48.89 16.2 48.7407 16.6267 48.442 16.968C48.1433 17.2667 47.7167 17.416 47.162 17.416C46.65 17.416 46.2233 17.2667 45.882 16.968C45.5833 16.6693 45.434 16.2427 45.434 15.688C45.434 15.176 45.5833 14.7707 45.882 14.472C46.1807 14.1307 46.6073 13.96 47.162 13.96C47.674 13.96 48.0793 14.1307 48.378 14.472C48.7193 14.7707 48.89 15.176 48.89 15.688ZM45.434 19.144C45.434 18.632 45.5833 18.2267 45.882 17.928C46.1807 17.5867 46.6073 17.416 47.162 17.416C47.674 17.416 48.0793 17.5867 48.378 17.928C48.7193 18.2267 48.89 18.632 48.89 19.144C48.89 19.656 48.7407 20.0827 48.442 20.424C48.1433 20.7227 47.7167 20.872 47.162 20.872C46.65 20.872 46.2233 20.7227 45.882 20.424C45.5833 20.1253 45.434 19.6987 45.434 19.144ZM43.706 20.872C43.194 20.872 42.7673 20.7227 42.426 20.424C42.1273 20.1253 41.978 19.6987 41.978 19.144C41.978 18.632 42.1273 18.2267 42.426 17.928C42.7247 17.5867 43.1513 17.416 43.706 17.416C44.218 17.416 44.6233 17.5867 44.922 17.928C45.2633 18.2267 45.434 18.632 45.434 19.144C45.434 19.656 45.2847 20.0827 44.986 20.424C44.6873 20.7227 44.2607 20.872 43.706 20.872ZM66.106 22.6C66.106 22.088 66.2553 21.6827 66.554 21.384C66.8527 21.0427 67.2793 20.872 67.834 20.872C68.346 20.872 68.7513 21.0427 69.05 21.384C69.3913 21.6827 69.562 22.088 69.562 22.6C69.562 23.112 69.4127 23.5387 69.114 23.88C68.8153 24.1787 68.3887 24.328 67.834 24.328C67.322 24.328 66.8953 24.1787 66.554 23.88C66.2553 23.5813 66.106 23.1547 66.106 22.6ZM48.826 22.664C48.826 23.176 48.6553 23.5813 48.314 23.88C48.0153 24.1787 47.61 24.328 47.098 24.328C45.9887 24.328 45.434 23.7307 45.434 22.536C45.434 22.024 45.5833 21.6187 45.882 21.32C46.2233 21.0213 46.65 20.872 47.162 20.872C48.2713 20.872 48.826 21.4267 48.826 22.536V22.664ZM52.282 22.6C52.282 23.112 52.1327 23.5387 51.834 23.88C51.5353 24.1787 51.1087 24.328 50.554 24.328C50.042 24.328 49.6153 24.1787 49.274 23.88C48.9753 23.5813 48.826 23.1547 48.826 22.6C48.826 22.088 48.9753 21.6827 49.274 21.384C49.5727 21.0427 49.9993 20.872 50.554 20.872C51.066 20.872 51.4713 21.0427 51.77 21.384C52.1113 21.6827 52.282 22.088 52.282 22.6ZM45.434 22.6C45.434 23.112 45.2847 23.5387 44.986 23.88C44.6873 24.1787 44.2607 24.328 43.706 24.328C43.194 24.328 42.7673 24.1787 42.426 23.88C42.1273 23.5813 41.978 23.1547 41.978 22.6C41.978 22.088 42.1273 21.6827 42.426 21.384C42.7247 21.0427 43.1513 20.872 43.706 20.872C44.218 20.872 44.6233 21.0427 44.922 21.384C45.2633 21.6827 45.434 22.088 45.434 22.6ZM55.738 22.6C55.738 23.112 55.5887 23.5387 55.29 23.88C54.9913 24.1787 54.5647 24.328 54.01 24.328C53.498 24.328 53.0713 24.1787 52.73 23.88C52.4313 23.5813 52.282 23.1547 52.282 22.6C52.282 22.088 52.4313 21.6827 52.73 21.384C53.0287 21.0427 53.4553 20.872 54.01 20.872C54.522 20.872 54.9273 21.0427 55.226 21.384C55.5673 21.6827 55.738 22.088 55.738 22.6ZM59.194 22.6C59.194 23.112 59.0447 23.5387 58.746 23.88C58.4473 24.1787 58.0207 24.328 57.466 24.328C56.954 24.328 56.5273 24.1787 56.186 23.88C55.8873 23.5813 55.738 23.1547 55.738 22.6C55.738 22.088 55.8873 21.6827 56.186 21.384C56.4847 21.0427 56.9113 20.872 57.466 20.872C57.978 20.872 58.3833 21.0427 58.682 21.384C59.0233 21.6827 59.194 22.088 59.194 22.6ZM62.65 22.6C62.65 23.112 62.5007 23.5387 62.202 23.88C61.9033 24.1787 61.4767 24.328 60.922 24.328C60.41 24.328 59.9833 24.1787 59.642 23.88C59.3433 23.5813 59.194 23.1547 59.194 22.6C59.194 22.088 59.3433 21.6827 59.642 21.384C59.9407 21.0427 60.3673 20.872 60.922 20.872C61.434 20.872 61.8393 21.0427 62.138 21.384C62.4793 21.6827 62.65 22.088 62.65 22.6ZM64.378 24.328C63.866 24.328 63.4393 24.1787 63.098 23.88C62.7993 23.5813 62.65 23.1547 62.65 22.6C62.65 22.088 62.7993 21.6827 63.098 21.384C63.3967 21.0427 63.8233 20.872 64.378 20.872C64.89 20.872 65.2953 21.0427 65.594 21.384C65.9353 21.6827 66.106 22.088 66.106 22.6C66.106 23.112 65.9567 23.5387 65.658 23.88C65.3593 24.1787 64.9327 24.328 64.378 24.328ZM52.282 26.056C52.282 26.568 52.1327 26.9947 51.834 27.336C51.5353 27.6347 51.1087 27.784 50.554 27.784C50.042 27.784 49.6153 27.6347 49.274 27.336C48.9753 27.0373 48.826 26.6107 48.826 26.056C48.826 25.544 48.9753 25.1387 49.274 24.84C49.5727 24.4987 49.9993 24.328 50.554 24.328C51.066 24.328 51.4713 24.4987 51.77 24.84C52.1113 25.1387 52.282 25.544 52.282 26.056ZM55.738 26.056C55.738 26.568 55.5887 26.9947 55.29 27.336C54.9913 27.6347 54.5647 27.784 54.01 27.784C53.498 27.784 53.0713 27.6347 52.73 27.336C52.4313 27.0373 52.282 26.6107 52.282 26.056C52.282 25.544 52.4313 25.1387 52.73 24.84C53.0287 24.4987 53.4553 24.328 54.01 24.328C54.522 24.328 54.9273 24.4987 55.226 24.84C55.5673 25.1387 55.738 25.544 55.738 26.056ZM59.194 26.056C59.194 26.568 59.0447 26.9947 58.746 27.336C58.4473 27.6347 58.0207 27.784 57.466 27.784C56.954 27.784 56.5273 27.6347 56.186 27.336C55.8873 27.0373 55.738 26.6107 55.738 26.056C55.738 25.544 55.8873 25.1387 56.186 24.84C56.4847 24.4987 56.9113 24.328 57.466 24.328C57.978 24.328 58.3833 24.4987 58.682 24.84C59.0233 25.1387 59.194 25.544 59.194 26.056ZM62.65 26.056C62.65 26.568 62.5007 26.9947 62.202 27.336C61.9033 27.6347 61.4767 27.784 60.922 27.784C60.41 27.784 59.9833 27.6347 59.642 27.336C59.3433 27.0373 59.194 26.6107 59.194 26.056C59.194 25.544 59.3433 25.1387 59.642 24.84C59.9407 24.4987 60.3673 24.328 60.922 24.328C61.434 24.328 61.8393 24.4987 62.138 24.84C62.4793 25.1387 62.65 25.544 62.65 26.056ZM66.106 26.056C66.106 26.568 65.9567 26.9947 65.658 27.336C65.3593 27.6347 64.9327 27.784 64.378 27.784C63.866 27.784 63.4393 27.6347 63.098 27.336C62.7993 27.0373 62.65 26.6107 62.65 26.056C62.65 25.544 62.7993 25.1387 63.098 24.84C63.3967 24.4987 63.8233 24.328 64.378 24.328C64.89 24.328 65.2953 24.4987 65.594 24.84C65.9353 25.1387 66.106 25.544 66.106 26.056ZM48.826 26.12C48.826 26.632 48.6553 27.0373 48.314 27.336C48.0153 27.6347 47.61 27.784 47.098 27.784C45.9887 27.784 45.434 27.1867 45.434 25.992C45.434 25.48 45.5833 25.0747 45.882 24.776C46.2233 24.4773 46.65 24.328 47.162 24.328C48.2713 24.328 48.826 24.8827 48.826 25.992V26.12ZM69.562 26.056C69.562 26.568 69.4127 26.9947 69.114 27.336C68.8153 27.6347 68.3887 27.784 67.834 27.784C67.322 27.784 66.8953 27.6347 66.554 27.336C66.2553 27.0373 66.106 26.6107 66.106 26.056C66.106 25.544 66.2553 25.1387 66.554 24.84C66.8527 24.4987 67.2793 24.328 67.834 24.328C68.346 24.328 68.7513 24.4987 69.05 24.84C69.3913 25.1387 69.562 25.544 69.562 26.056ZM45.434 26.056C45.434 26.568 45.2847 26.9947 44.986 27.336C44.6873 27.6347 44.2607 27.784 43.706 27.784C43.194 27.784 42.7673 27.6347 42.426 27.336C42.1273 27.0373 41.978 26.6107 41.978 26.056C41.978 25.544 42.1273 25.1387 42.426 24.84C42.7247 24.4987 43.1513 24.328 43.706 24.328C44.218 24.328 44.6233 24.4987 44.922 24.84C45.2633 25.1387 45.434 25.544 45.434 26.056ZM45.434 29.512C45.434 29 45.5833 28.5947 45.882 28.296C46.1807 27.9547 46.6073 27.784 47.162 27.784C47.674 27.784 48.0793 27.9547 48.378 28.296C48.7193 28.5947 48.89 29 48.89 29.512C48.89 30.024 48.7407 30.4507 48.442 30.792C48.1433 31.0907 47.7167 31.24 47.162 31.24C46.65 31.24 46.2233 31.0907 45.882 30.792C45.5833 30.4933 45.434 30.0667 45.434 29.512ZM43.706 31.24C43.194 31.24 42.7673 31.0907 42.426 30.792C42.1273 30.4933 41.978 30.0667 41.978 29.512C41.978 29 42.1273 28.5947 42.426 28.296C42.7247 27.9547 43.1513 27.784 43.706 27.784C44.218 27.784 44.6233 27.9547 44.922 28.296C45.2633 28.5947 45.434 29 45.434 29.512C45.434 30.024 45.2847 30.4507 44.986 30.792C44.6873 31.0907 44.2607 31.24 43.706 31.24ZM45.434 32.968C45.434 34.0773 44.8367 34.632 43.642 34.632C43.13 34.632 42.7247 34.4827 42.426 34.184C42.1273 33.8427 41.978 33.416 41.978 32.904C41.978 31.7947 42.5753 31.24 43.77 31.24C44.8793 31.24 45.434 31.7947 45.434 32.904V32.968ZM48.89 32.968C48.89 34.0773 48.2927 34.632 47.098 34.632C46.586 34.632 46.1807 34.4827 45.882 34.184C45.5833 33.8427 45.434 33.416 45.434 32.904C45.434 31.7947 46.0313 31.24 47.226 31.24C48.3353 31.24 48.89 31.7947 48.89 32.904V32.968ZM45.434 36.36C45.434 35.848 45.5833 35.4427 45.882 35.144C46.1807 34.8027 46.6073 34.632 47.162 34.632C47.674 34.632 48.0793 34.8027 48.378 35.144C48.7193 35.4427 48.89 35.848 48.89 36.36C48.89 36.872 48.7407 37.2987 48.442 37.64C48.1433 37.9387 47.7167 38.088 47.162 38.088C46.65 38.088 46.2233 37.9387 45.882 37.64C45.5833 37.3413 45.434 36.9147 45.434 36.36ZM43.706 38.088C43.194 38.088 42.7673 37.9387 42.426 37.64C42.1273 37.3413 41.978 36.9147 41.978 36.36C41.978 35.848 42.1273 35.4427 42.426 35.144C42.7247 34.8027 43.1513 34.632 43.706 34.632C44.218 34.632 44.6233 34.8027 44.922 35.144C45.2633 35.4427 45.434 35.848 45.434 36.36C45.434 36.872 45.2847 37.2987 44.986 37.64C44.6873 37.9387 44.2607 38.088 43.706 38.088ZM45.434 39.816C45.434 39.304 45.5833 38.8987 45.882 38.6C46.1807 38.2587 46.6073 38.088 47.162 38.088C47.674 38.088 48.0793 38.2587 48.378 38.6C48.7193 38.8987 48.89 39.304 48.89 39.816C48.89 40.328 48.7407 40.7547 48.442 41.096C48.1433 41.3947 47.7167 41.544 47.162 41.544C46.65 41.544 46.2233 41.3947 45.882 41.096C45.5833 40.7973 45.434 40.3707 45.434 39.816ZM43.706 41.544C43.194 41.544 42.7673 41.3947 42.426 41.096C42.1273 40.7973 41.978 40.3707 41.978 39.816C41.978 39.304 42.1273 38.8987 42.426 38.6C42.7247 38.2587 43.1513 38.088 43.706 38.088C44.218 38.088 44.6233 38.2587 44.922 38.6C45.2633 38.8987 45.434 39.304 45.434 39.816C45.434 40.328 45.2847 40.7547 44.986 41.096C44.6873 41.3947 44.2607 41.544 43.706 41.544ZM45.434 43.272C45.434 42.76 45.5833 42.3547 45.882 42.056C46.1807 41.7147 46.6073 41.544 47.162 41.544C47.674 41.544 48.0793 41.6933 48.378 41.992C48.7193 42.2907 48.89 42.7173 48.89 43.272C48.89 43.784 48.7407 44.2107 48.442 44.552C48.1433 44.8507 47.7167 45 47.162 45C46.65 45 46.2233 44.8507 45.882 44.552C45.5833 44.2107 45.434 43.784 45.434 43.272ZM41.978 43.272C41.978 42.76 42.1273 42.3547 42.426 42.056C42.7247 41.7147 43.1513 41.544 43.706 41.544C44.218 41.544 44.6233 41.6933 44.922 41.992C45.2633 42.2907 45.434 42.7173 45.434 43.272C45.434 43.784 45.2847 44.2107 44.986 44.552C44.6873 44.8507 44.2607 45 43.706 45C43.194 45 42.7673 44.8507 42.426 44.552C42.1273 44.2107 41.978 43.784 41.978 43.272Z" fill="black"/>
</svg>
